<svg xmlns="http://www.w3.org/2000/svg" viewBox="0 0 192 192" width="192" height="192">
  <rect width="192" height="192" rx="40" fill="#4F46E5"/>
  <path d="M52 84h72v40a28 28 0 0 1-28 28H80a28 28 0 0 1-28-28V84Z" fill="#FDE68A"/>
  <path d="M124 92h10a16 16 0 0 1 0 32h-10" fill="none" stroke="#FDE68A" stroke-width="10"/>
  <rect x="52" y="76" width="72" height="12" rx="6" fill="#FDE68A"/>
  <path d="M68 68c0-6 6-6 6-12s-6-6-6-12" fill="none" stroke="#FDE68A" stroke-width="7" stroke-linecap="round"/>
  <path d="M92 68c0-6 6-6 6-12s-6-6-6-12" fill="none" stroke="#FDE68A" stroke-width="7" stroke-linecap="round"/>
</svg>
